<svg xmlns="http://www.w3.org/2000/svg" width="27.906" height="16.969" viewBox="0 0 27.906 16.969">
  <defs>
    <style>
      .cls-1 {
        fill-rule: evenodd;
      }
    </style>
  </defs>
  <path class="cls-1" d="M58.95,46.965L40.052,47a4.143,4.143,0,0,1-4.022-4.509,3.965,3.965,0,0,1,3.992-4.2S39.616,33,44.45,32.97c2.713,0,3.087,1.942,3.087,1.942a6.524,6.524,0,0,1,6.8-4.884c6.455,0.031,6.611,6.387,6.611,6.387a4.335,4.335,0,0,1-.437,2.16C61.288,38.7,64,39.013,63.939,42.8S60.29,47,58.95,46.965Z" transform="translate(-36.031 -30.031)"/>
</svg>
